<svg xmlns="http://www.w3.org/2000/svg" xmlns:xlink="http://www.w3.org/1999/xlink" width="250" zoomAndPan="magnify" viewBox="0 0 187.5 112.499997" height="150" preserveAspectRatio="xMidYMid meet" version="1.0"><defs><clipPath id="id1"><path d="M 23.65625 6 L 163.660156 6 L 163.660156 106.667969 L 23.65625 106.667969 Z M 23.65625 6 " clip-rule="nonzero"/></clipPath></defs><g clip-path="url(#id1)"><path fill="#ffffff" d="M 112.34375 19.804688 L 95.824219 16.765625 C 94.324219 16.488281 92.996094 16.488281 91.492188 16.765625 L 74.976562 19.804688 C 72.09375 18.003906 68.691406 16.964844 65.042969 16.964844 C 54.660156 16.964844 46.242188 25.386719 46.242188 35.78125 C 46.242188 46.171875 54.660156 54.59375 65.042969 54.59375 C 75.425781 54.59375 83.839844 46.171875 83.839844 35.78125 C 83.839844 34.617188 83.734375 33.476562 83.53125 32.367188 L 88.507812 31.453125 C 89.113281 33.738281 91.1875 35.417969 93.660156 35.417969 C 96.128906 35.417969 98.207031 33.738281 98.808594 31.453125 L 103.785156 32.367188 C 103.585938 33.476562 103.476562 34.617188 103.476562 35.78125 C 103.476562 46.171875 111.894531 54.59375 122.277344 54.59375 C 132.65625 54.59375 141.074219 46.171875 141.074219 35.78125 C 141.074219 25.386719 132.65625 16.964844 122.277344 16.964844 C 118.628906 16.964844 115.226562 18.003906 112.34375 19.804688 Z M 157.660156 57.882812 C 158.328125 51.671875 160.0625 37.332031 158.21875 33.136719 C 155.964844 27.25 155.261719 21.367188 151.683594 14.792969 C 149.839844 11.402344 146.738281 9.832031 143.015625 8.828125 L 114.855469 6.898438 C 109.445312 5.605469 109.488281 12.320312 113.304688 15.121094 C 128.011719 8.765625 144.8125 19.503906 144.8125 35.867188 C 144.8125 48.335938 134.710938 58.449219 122.25 58.449219 C 111.277344 58.449219 102.132812 50.609375 100.105469 40.222656 C 97.128906 41.277344 96.253906 44.714844 97.878906 46.824219 L 106.839844 60.296875 C 109.316406 64.023438 120.691406 66.324219 125.019531 67.488281 C 126.058594 68.71875 127.21875 69.734375 128.027344 70.851562 C 129.050781 72.265625 128.769531 92.640625 128.808594 101.96875 C 128.820312 104.460938 130.84375 106.488281 133.332031 106.503906 C 140.964844 106.554688 151.15625 106.597656 158.921875 106.648438 C 160.246094 106.65625 161.394531 106.160156 162.292969 105.183594 C 163.195312 104.210938 163.660156 103.019531 163.484375 101.703125 Z M 29.660156 57.882812 C 28.992188 51.671875 27.257812 37.332031 29.101562 33.136719 C 31.351562 27.25 32.058594 21.367188 35.632812 14.792969 C 37.476562 11.402344 40.582031 9.832031 44.304688 8.828125 L 72.460938 6.898438 C 77.871094 5.605469 77.832031 12.320312 74.011719 15.121094 C 59.304688 8.765625 42.503906 19.503906 42.503906 35.867188 C 42.503906 48.335938 52.609375 58.449219 65.070312 58.449219 C 76.039062 58.449219 85.183594 50.609375 87.214844 40.222656 C 90.1875 41.277344 91.0625 44.714844 89.441406 46.824219 L 80.480469 60.296875 C 78 64.023438 66.625 66.324219 62.300781 67.488281 C 61.253906 68.71875 60.097656 69.734375 59.289062 70.851562 C 58.269531 72.265625 58.546875 92.640625 58.507812 101.96875 C 58.496094 104.460938 56.472656 106.488281 53.984375 106.503906 C 46.351562 106.554688 36.160156 106.597656 28.398438 106.648438 C 27.070312 106.65625 25.925781 106.160156 25.023438 105.183594 C 24.125 104.210938 23.65625 103.019531 23.832031 101.703125 Z M 65.042969 21.160156 C 56.972656 21.160156 50.433594 27.703125 50.433594 35.78125 C 50.433594 43.855469 56.972656 50.402344 65.042969 50.402344 C 73.109375 50.402344 79.652344 43.855469 79.652344 35.78125 C 79.652344 27.703125 73.109375 21.160156 65.042969 21.160156 Z M 93.660156 27.75 C 94.945312 27.75 95.992188 28.792969 95.992188 30.085938 C 95.992188 31.378906 94.949219 32.421875 93.660156 32.421875 C 92.367188 32.421875 91.324219 31.378906 91.324219 30.085938 C 91.324219 28.792969 92.367188 27.75 93.660156 27.75 Z M 107.90625 33.128906 C 108.65625 29.039062 111.105469 25.542969 114.492188 23.40625 L 114.597656 23.339844 L 114.601562 23.335938 C 114.667969 23.296875 114.734375 23.253906 114.804688 23.214844 L 114.8125 23.207031 L 114.917969 23.144531 C 114.988281 23.105469 115.0625 23.066406 115.132812 23.023438 L 115.136719 23.019531 L 115.246094 22.960938 C 115.308594 22.925781 115.375 22.890625 115.4375 22.855469 L 115.515625 22.816406 L 115.691406 22.726562 L 115.804688 22.667969 L 115.820312 22.664062 C 115.890625 22.628906 115.957031 22.59375 116.027344 22.5625 L 116.171875 22.492188 L 116.359375 22.410156 L 116.375 22.402344 L 116.488281 22.351562 L 116.507812 22.34375 L 116.679688 22.269531 L 116.84375 22.203125 L 116.988281 22.148438 L 117.195312 22.066406 L 117.320312 22.023438 C 117.390625 21.996094 117.460938 21.972656 117.53125 21.949219 L 117.648438 21.910156 C 117.726562 21.878906 117.808594 21.855469 117.886719 21.828125 L 117.980469 21.800781 C 118.058594 21.777344 118.132812 21.753906 118.210938 21.734375 L 118.34375 21.695312 C 118.425781 21.671875 118.507812 21.652344 118.585938 21.632812 L 118.644531 21.613281 C 118.746094 21.589844 118.84375 21.5625 118.941406 21.542969 L 119.011719 21.527344 C 119.105469 21.503906 119.203125 21.480469 119.304688 21.460938 L 119.367188 21.449219 C 119.46875 21.429688 119.566406 21.410156 119.671875 21.390625 L 119.71875 21.382812 C 119.824219 21.363281 119.933594 21.34375 120.042969 21.328125 L 120.050781 21.328125 L 120.066406 21.324219 C 120.175781 21.308594 120.289062 21.292969 120.398438 21.277344 L 120.414062 21.277344 L 120.425781 21.273438 C 120.542969 21.261719 120.65625 21.246094 120.769531 21.234375 L 120.789062 21.234375 C 120.90625 21.222656 121.023438 21.210938 121.140625 21.203125 L 121.160156 21.199219 C 121.277344 21.191406 121.398438 21.183594 121.519531 21.179688 L 121.527344 21.179688 C 121.648438 21.171875 121.769531 21.167969 121.890625 21.164062 L 121.90625 21.164062 C 122.03125 21.160156 122.152344 21.160156 122.273438 21.160156 C 130.339844 21.160156 136.886719 27.703125 136.886719 35.78125 C 136.886719 43.855469 130.339844 50.402344 122.273438 50.402344 C 114.207031 50.402344 107.667969 43.855469 107.667969 35.78125 C 107.667969 35.65625 107.667969 35.535156 107.671875 35.414062 L 107.671875 35.394531 C 107.675781 35.273438 107.679688 35.152344 107.6875 35.035156 L 107.6875 35.019531 C 107.691406 34.910156 107.699219 34.796875 107.707031 34.6875 L 107.707031 34.65625 L 107.710938 34.644531 C 107.71875 34.53125 107.730469 34.417969 107.742188 34.308594 L 107.746094 34.253906 C 107.757812 34.15625 107.765625 34.058594 107.78125 33.960938 L 107.792969 33.875 C 107.800781 33.785156 107.816406 33.691406 107.828125 33.601562 L 107.84375 33.503906 C 107.855469 33.417969 107.871094 33.328125 107.886719 33.238281 L 107.90625 33.140625 Z M 107.90625 33.128906 " fill-opacity="1" fill-rule="evenodd"/></g></svg>