<svg xmlns="http://www.w3.org/2000/svg" xmlns:xlink="http://www.w3.org/1999/xlink" width="500" zoomAndPan="magnify" viewBox="0 0 375 149.999998" height="200" preserveAspectRatio="xMidYMid meet" version="1.0"><defs><g/><clipPath id="id1"><path d="M 18.359375 8.878906 L 144.320312 8.878906 L 144.320312 134.835938 L 18.359375 134.835938 Z M 18.359375 8.878906 " clip-rule="nonzero"/></clipPath><clipPath id="id2"><path d="M 52.246094 8.878906 L 110.433594 8.878906 C 111.542969 8.878906 112.652344 8.929688 113.753906 9.039062 C 114.859375 9.148438 115.957031 9.3125 117.042969 9.527344 C 118.132812 9.746094 119.207031 10.015625 120.269531 10.335938 C 121.332031 10.660156 122.375 11.03125 123.402344 11.457031 C 124.425781 11.882812 125.429688 12.355469 126.40625 12.878906 C 127.386719 13.402344 128.335938 13.972656 129.261719 14.589844 C 130.183594 15.203125 131.074219 15.863281 131.929688 16.570312 C 132.789062 17.273438 133.609375 18.015625 134.394531 18.800781 C 135.179688 19.585938 135.925781 20.410156 136.628906 21.265625 C 137.332031 22.125 137.992188 23.015625 138.609375 23.9375 C 139.226562 24.859375 139.796875 25.8125 140.320312 26.789062 C 140.84375 27.769531 141.316406 28.769531 141.742188 29.796875 C 142.164062 30.820312 142.539062 31.863281 142.859375 32.925781 C 143.183594 33.988281 143.453125 35.0625 143.667969 36.152344 C 143.886719 37.242188 144.046875 38.335938 144.15625 39.441406 C 144.265625 40.546875 144.320312 41.652344 144.320312 42.761719 L 144.320312 100.949219 C 144.320312 102.058594 144.265625 103.167969 144.15625 104.269531 C 144.046875 105.375 143.886719 106.472656 143.667969 107.558594 C 143.453125 108.648438 143.183594 109.722656 142.859375 110.785156 C 142.539062 111.847656 142.164062 112.890625 141.742188 113.917969 C 141.316406 114.941406 140.84375 115.945312 140.320312 116.921875 C 139.796875 117.902344 139.226562 118.851562 138.609375 119.777344 C 137.992188 120.699219 137.332031 121.589844 136.628906 122.445312 C 135.925781 123.304688 135.179688 124.125 134.394531 124.910156 C 133.609375 125.695312 132.789062 126.441406 131.929688 127.144531 C 131.074219 127.847656 130.183594 128.507812 129.261719 129.125 C 128.335938 129.742188 127.386719 130.3125 126.40625 130.835938 C 125.429688 131.359375 124.425781 131.832031 123.402344 132.257812 C 122.375 132.679688 121.332031 133.054688 120.269531 133.375 C 119.207031 133.699219 118.132812 133.96875 117.042969 134.183594 C 115.957031 134.402344 114.859375 134.5625 113.753906 134.671875 C 112.652344 134.78125 111.542969 134.835938 110.433594 134.835938 L 52.246094 134.835938 C 51.136719 134.835938 50.03125 134.78125 48.925781 134.671875 C 47.820312 134.5625 46.726562 134.402344 45.636719 134.183594 C 44.546875 133.96875 43.472656 133.699219 42.410156 133.375 C 41.347656 133.054688 40.304688 132.679688 39.28125 132.257812 C 38.253906 131.832031 37.253906 131.359375 36.273438 130.835938 C 35.292969 130.3125 34.34375 129.742188 33.421875 129.125 C 32.5 128.507812 31.609375 127.847656 30.75 127.144531 C 29.890625 126.441406 29.070312 125.695312 28.285156 124.910156 C 27.5 124.125 26.757812 123.304688 26.054688 122.445312 C 25.347656 121.589844 24.6875 120.699219 24.070312 119.777344 C 23.457031 118.851562 22.886719 117.902344 22.363281 116.921875 C 21.839844 115.945312 21.367188 114.941406 20.941406 113.917969 C 20.515625 112.890625 20.144531 111.847656 19.820312 110.785156 C 19.5 109.722656 19.230469 108.648438 19.011719 107.558594 C 18.796875 106.472656 18.632812 105.375 18.523438 104.269531 C 18.414062 103.167969 18.359375 102.058594 18.359375 100.949219 L 18.359375 42.761719 C 18.359375 41.652344 18.414062 40.546875 18.523438 39.441406 C 18.632812 38.335938 18.796875 37.242188 19.011719 36.152344 C 19.230469 35.0625 19.5 33.988281 19.820312 32.925781 C 20.144531 31.863281 20.515625 30.820312 20.941406 29.796875 C 21.367188 28.769531 21.839844 27.769531 22.363281 26.789062 C 22.886719 25.8125 23.457031 24.859375 24.070312 23.9375 C 24.6875 23.015625 25.347656 22.125 26.054688 21.265625 C 26.757812 20.410156 27.5 19.585938 28.285156 18.800781 C 29.070312 18.015625 29.890625 17.273438 30.75 16.570312 C 31.609375 15.863281 32.5 15.203125 33.421875 14.589844 C 34.34375 13.972656 35.292969 13.402344 36.273438 12.878906 C 37.253906 12.355469 38.253906 11.882812 39.28125 11.457031 C 40.304688 11.03125 41.347656 10.660156 42.410156 10.335938 C 43.472656 10.015625 44.546875 9.746094 45.636719 9.527344 C 46.726562 9.3125 47.820312 9.148438 48.925781 9.039062 C 50.03125 8.929688 51.136719 8.878906 52.246094 8.878906 Z M 52.246094 8.878906 " clip-rule="nonzero"/></clipPath><linearGradient x1="21.351884" gradientTransform="matrix(0.000000000000000033, -0.533723, 0.533723, 0.000000000000000033, 18.361308, 134.835754)" y1="-15.462289" x2="214.648921" gradientUnits="userSpaceOnUse" y2="251.461699" id="id3"><stop stop-opacity="1" stop-color="rgb(49.617004%, 66.291809%, 95.73822%)" offset="0"/><stop stop-opacity="1" stop-color="rgb(49.578857%, 66.012573%, 95.687866%)" offset="0.00390625"/><stop stop-opacity="1" stop-color="rgb(49.542236%, 65.734863%, 95.639038%)" offset="0.0078125"/><stop stop-opacity="1" stop-color="rgb(49.504089%, 65.455627%, 95.59021%)" offset="0.0117187"/><stop stop-opacity="1" stop-color="rgb(49.465942%, 65.176392%, 95.541382%)" offset="0.015625"/><stop stop-opacity="1" stop-color="rgb(49.427795%, 64.897156%, 95.491028%)" offset="0.0195312"/><stop stop-opacity="1" stop-color="rgb(49.391174%, 64.619446%, 95.4422%)" offset="0.0234375"/><stop stop-opacity="1" stop-color="rgb(49.353027%, 64.34021%, 95.391846%)" offset="0.0273438"/><stop stop-opacity="1" stop-color="rgb(49.31488%, 64.0625%, 95.343018%)" offset="0.03125"/><stop stop-opacity="1" stop-color="rgb(49.276733%, 63.783264%, 95.294189%)" offset="0.0351563"/><stop stop-opacity="1" stop-color="rgb(49.240112%, 63.505554%, 95.245361%)" offset="0.0390625"/><stop stop-opacity="1" stop-color="rgb(49.201965%, 63.226318%, 95.195007%)" offset="0.0429688"/><stop stop-opacity="1" stop-color="rgb(49.165344%, 62.947083%, 95.146179%)" offset="0.046875"/><stop stop-opacity="1" stop-color="rgb(49.127197%, 62.667847%, 95.097351%)" offset="0.0507813"/><stop stop-opacity="1" stop-color="rgb(49.08905%, 62.390137%, 95.048523%)" offset="0.0546875"/><stop stop-opacity="1" stop-color="rgb(49.050903%, 62.110901%, 94.998169%)" offset="0.0585938"/><stop stop-opacity="1" stop-color="rgb(49.014282%, 61.833191%, 94.949341%)" offset="0.0625"/><stop stop-opacity="1" stop-color="rgb(48.976135%, 61.553955%, 94.900513%)" offset="0.0664062"/><stop stop-opacity="1" stop-color="rgb(48.939514%, 61.274719%, 94.851685%)" offset="0.0703125"/><stop stop-opacity="1" stop-color="rgb(48.901367%, 60.995483%, 94.801331%)" offset="0.0742188"/><stop stop-opacity="1" stop-color="rgb(48.86322%, 60.717773%, 94.752502%)" offset="0.078125"/><stop stop-opacity="1" stop-color="rgb(48.825073%, 60.438538%, 94.702148%)" offset="0.0820312"/><stop stop-opacity="1" stop-color="rgb(48.788452%, 60.160828%, 94.65332%)" offset="0.0859375"/><stop stop-opacity="1" stop-color="rgb(48.750305%, 59.881592%, 94.604492%)" offset="0.0898437"/><stop stop-opacity="1" stop-color="rgb(48.712158%, 59.603882%, 94.555664%)" offset="0.09375"/><stop stop-opacity="1" stop-color="rgb(48.674011%, 59.324646%, 94.50531%)" offset="0.0976563"/><stop stop-opacity="1" stop-color="rgb(48.63739%, 59.04541%, 94.456482%)" offset="0.101562"/><stop stop-opacity="1" stop-color="rgb(48.599243%, 58.766174%, 94.407654%)" offset="0.105469"/><stop stop-opacity="1" stop-color="rgb(48.562622%, 58.488464%, 94.358826%)" offset="0.109375"/><stop stop-opacity="1" stop-color="rgb(48.524475%, 58.209229%, 94.308472%)" offset="0.113281"/><stop stop-opacity="1" stop-color="rgb(48.486328%, 57.931519%, 94.259644%)" offset="0.117188"/><stop stop-opacity="1" stop-color="rgb(48.448181%, 57.652283%, 94.210815%)" offset="0.121094"/><stop stop-opacity="1" stop-color="rgb(48.41156%, 57.374573%, 94.161987%)" offset="0.125"/><stop stop-opacity="1" stop-color="rgb(48.373413%, 57.095337%, 94.111633%)" offset="0.128906"/><stop stop-opacity="1" stop-color="rgb(48.336792%, 56.816101%, 94.062805%)" offset="0.132812"/><stop stop-opacity="1" stop-color="rgb(48.298645%, 56.536865%, 94.012451%)" offset="0.136719"/><stop stop-opacity="1" stop-color="rgb(48.260498%, 56.259155%, 93.963623%)" offset="0.140625"/><stop stop-opacity="1" stop-color="rgb(48.222351%, 55.979919%, 93.914795%)" offset="0.144531"/><stop stop-opacity="1" stop-color="rgb(48.18573%, 55.702209%, 93.865967%)" offset="0.148438"/><stop stop-opacity="1" stop-color="rgb(48.147583%, 55.422974%, 93.815613%)" offset="0.152344"/><stop stop-opacity="1" stop-color="rgb(48.109436%, 55.145264%, 93.766785%)" offset="0.15625"/><stop stop-opacity="1" stop-color="rgb(48.071289%, 54.866028%, 93.717957%)" offset="0.160156"/><stop stop-opacity="1" stop-color="rgb(48.034668%, 54.586792%, 93.669128%)" offset="0.164063"/><stop stop-opacity="1" stop-color="rgb(47.996521%, 54.307556%, 93.618774%)" offset="0.167969"/><stop stop-opacity="1" stop-color="rgb(47.9599%, 54.029846%, 93.569946%)" offset="0.171875"/><stop stop-opacity="1" stop-color="rgb(47.921753%, 53.75061%, 93.521118%)" offset="0.175781"/><stop stop-opacity="1" stop-color="rgb(47.883606%, 53.4729%, 93.47229%)" offset="0.179687"/><stop stop-opacity="1" stop-color="rgb(47.845459%, 53.193665%, 93.421936%)" offset="0.183594"/><stop stop-opacity="1" stop-color="rgb(47.808838%, 52.915955%, 93.373108%)" offset="0.1875"/><stop stop-opacity="1" stop-color="rgb(47.770691%, 52.636719%, 93.322754%)" offset="0.191406"/><stop stop-opacity="1" stop-color="rgb(47.73407%, 52.357483%, 93.273926%)" offset="0.195313"/><stop stop-opacity="1" stop-color="rgb(47.695923%, 52.078247%, 93.225098%)" offset="0.199219"/><stop stop-opacity="1" stop-color="rgb(47.657776%, 51.800537%, 93.17627%)" offset="0.203125"/><stop stop-opacity="1" stop-color="rgb(47.619629%, 51.521301%, 93.125916%)" offset="0.207031"/><stop stop-opacity="1" stop-color="rgb(47.583008%, 51.243591%, 93.077087%)" offset="0.210938"/><stop stop-opacity="1" stop-color="rgb(47.544861%, 50.964355%, 93.028259%)" offset="0.214844"/><stop stop-opacity="1" stop-color="rgb(47.506714%, 50.686646%, 92.979431%)" offset="0.21875"/><stop stop-opacity="1" stop-color="rgb(47.468567%, 50.40741%, 92.929077%)" offset="0.222656"/><stop stop-opacity="1" stop-color="rgb(47.431946%, 50.128174%, 92.880249%)" offset="0.226563"/><stop stop-opacity="1" stop-color="rgb(47.393799%, 49.848938%, 92.831421%)" offset="0.230469"/><stop stop-opacity="1" stop-color="rgb(47.357178%, 49.571228%, 92.782593%)" offset="0.234375"/><stop stop-opacity="1" stop-color="rgb(47.319031%, 49.291992%, 92.732239%)" offset="0.238281"/><stop stop-opacity="1" stop-color="rgb(47.280884%, 49.014282%, 92.683411%)" offset="0.242188"/><stop stop-opacity="1" stop-color="rgb(47.242737%, 48.735046%, 92.633057%)" offset="0.246094"/><stop stop-opacity="1" stop-color="rgb(47.206116%, 48.457336%, 92.584229%)" offset="0.25"/><stop stop-opacity="1" stop-color="rgb(47.167969%, 48.178101%, 92.5354%)" offset="0.253906"/><stop stop-opacity="1" stop-color="rgb(47.131348%, 47.898865%, 92.486572%)" offset="0.257813"/><stop stop-opacity="1" stop-color="rgb(47.093201%, 47.619629%, 92.436218%)" offset="0.261719"/><stop stop-opacity="1" stop-color="rgb(47.055054%, 47.341919%, 92.38739%)" offset="0.265625"/><stop stop-opacity="1" stop-color="rgb(47.016907%, 47.062683%, 92.338562%)" offset="0.269531"/><stop stop-opacity="1" stop-color="rgb(46.980286%, 46.784973%, 92.289734%)" offset="0.273438"/><stop stop-opacity="1" stop-color="rgb(46.942139%, 46.505737%, 92.23938%)" offset="0.277344"/><stop stop-opacity="1" stop-color="rgb(46.903992%, 46.226501%, 92.190552%)" offset="0.28125"/><stop stop-opacity="1" stop-color="rgb(46.865845%, 45.947266%, 92.141724%)" offset="0.285156"/><stop stop-opacity="1" stop-color="rgb(46.829224%, 45.669556%, 92.092896%)" offset="0.289063"/><stop stop-opacity="1" stop-color="rgb(46.791077%, 45.39032%, 92.042542%)" offset="0.292969"/><stop stop-opacity="1" stop-color="rgb(46.754456%, 45.11261%, 91.993713%)" offset="0.296875"/><stop stop-opacity="1" stop-color="rgb(46.716309%, 44.833374%, 91.943359%)" offset="0.300781"/><stop stop-opacity="1" stop-color="rgb(46.678162%, 44.555664%, 91.894531%)" offset="0.304688"/><stop stop-opacity="1" stop-color="rgb(46.640015%, 44.276428%, 91.845703%)" offset="0.308594"/><stop stop-opacity="1" stop-color="rgb(46.603394%, 43.997192%, 91.796875%)" offset="0.3125"/><stop stop-opacity="1" stop-color="rgb(46.565247%, 43.717957%, 91.746521%)" offset="0.316406"/><stop stop-opacity="1" stop-color="rgb(46.528625%, 43.440247%, 91.697693%)" offset="0.320313"/><stop stop-opacity="1" stop-color="rgb(46.490479%, 43.161011%, 91.648865%)" offset="0.324219"/><stop stop-opacity="1" stop-color="rgb(46.452332%, 42.883301%, 91.600037%)" offset="0.328125"/><stop stop-opacity="1" stop-color="rgb(46.414185%, 42.604065%, 91.549683%)" offset="0.332031"/><stop stop-opacity="1" stop-color="rgb(46.377563%, 42.326355%, 91.500854%)" offset="0.335938"/><stop stop-opacity="1" stop-color="rgb(46.339417%, 42.047119%, 91.452026%)" offset="0.339844"/><stop stop-opacity="1" stop-color="rgb(46.30127%, 41.767883%, 91.403198%)" offset="0.34375"/><stop stop-opacity="1" stop-color="rgb(46.263123%, 41.488647%, 91.352844%)" offset="0.347656"/><stop stop-opacity="1" stop-color="rgb(46.226501%, 41.210938%, 91.304016%)" offset="0.351563"/><stop stop-opacity="1" stop-color="rgb(46.188354%, 40.931702%, 91.255188%)" offset="0.355469"/><stop stop-opacity="1" stop-color="rgb(46.151733%, 40.653992%, 91.20636%)" offset="0.359375"/><stop stop-opacity="1" stop-color="rgb(46.113586%, 40.374756%, 91.156006%)" offset="0.363281"/><stop stop-opacity="1" stop-color="rgb(46.075439%, 40.097046%, 91.107178%)" offset="0.367188"/><stop stop-opacity="1" stop-color="rgb(46.037292%, 39.81781%, 91.056824%)" offset="0.371094"/><stop stop-opacity="1" stop-color="rgb(46.000671%, 39.538574%, 91.007996%)" offset="0.375"/><stop stop-opacity="1" stop-color="rgb(45.962524%, 39.259338%, 90.959167%)" offset="0.378906"/><stop stop-opacity="1" stop-color="rgb(45.924377%, 38.981628%, 90.910339%)" offset="0.382813"/><stop stop-opacity="1" stop-color="rgb(45.88623%, 38.702393%, 90.859985%)" offset="0.386719"/><stop stop-opacity="1" stop-color="rgb(45.849609%, 38.424683%, 90.811157%)" offset="0.390625"/><stop stop-opacity="1" stop-color="rgb(45.811462%, 38.145447%, 90.762329%)" offset="0.394531"/><stop stop-opacity="1" stop-color="rgb(45.774841%, 37.867737%, 90.713501%)" offset="0.398438"/><stop stop-opacity="1" stop-color="rgb(45.736694%, 37.588501%, 90.663147%)" offset="0.402344"/><stop stop-opacity="1" stop-color="rgb(45.698547%, 37.309265%, 90.614319%)" offset="0.40625"/><stop stop-opacity="1" stop-color="rgb(45.6604%, 37.030029%, 90.565491%)" offset="0.410156"/><stop stop-opacity="1" stop-color="rgb(45.623779%, 36.752319%, 90.516663%)" offset="0.414063"/><stop stop-opacity="1" stop-color="rgb(45.585632%, 36.473083%, 90.466309%)" offset="0.417969"/><stop stop-opacity="1" stop-color="rgb(45.549011%, 36.195374%, 90.41748%)" offset="0.421875"/><stop stop-opacity="1" stop-color="rgb(45.510864%, 35.916138%, 90.367126%)" offset="0.425781"/><stop stop-opacity="1" stop-color="rgb(45.472717%, 35.638428%, 90.318298%)" offset="0.429688"/><stop stop-opacity="1" stop-color="rgb(45.43457%, 35.359192%, 90.26947%)" offset="0.433594"/><stop stop-opacity="1" stop-color="rgb(45.397949%, 35.079956%, 90.220642%)" offset="0.4375"/><stop stop-opacity="1" stop-color="rgb(45.359802%, 34.80072%, 90.170288%)" offset="0.441406"/><stop stop-opacity="1" stop-color="rgb(45.321655%, 34.52301%, 90.12146%)" offset="0.445313"/><stop stop-opacity="1" stop-color="rgb(45.283508%, 34.243774%, 90.072632%)" offset="0.449219"/><stop stop-opacity="1" stop-color="rgb(45.246887%, 33.966064%, 90.023804%)" offset="0.453125"/><stop stop-opacity="1" stop-color="rgb(45.20874%, 33.686829%, 89.97345%)" offset="0.457031"/><stop stop-opacity="1" stop-color="rgb(45.172119%, 33.409119%, 89.924622%)" offset="0.460938"/><stop stop-opacity="1" stop-color="rgb(45.133972%, 33.129883%, 89.875793%)" offset="0.464844"/><stop stop-opacity="1" stop-color="rgb(45.095825%, 32.850647%, 89.826965%)" offset="0.46875"/><stop stop-opacity="1" stop-color="rgb(45.057678%, 32.571411%, 89.776611%)" offset="0.472656"/><stop stop-opacity="1" stop-color="rgb(45.021057%, 32.293701%, 89.727783%)" offset="0.476563"/><stop stop-opacity="1" stop-color="rgb(44.98291%, 32.014465%, 89.677429%)" offset="0.480469"/><stop stop-opacity="1" stop-color="rgb(44.946289%, 31.736755%, 89.628601%)" offset="0.484375"/><stop stop-opacity="1" stop-color="rgb(44.908142%, 31.45752%, 89.579773%)" offset="0.488281"/><stop stop-opacity="1" stop-color="rgb(44.869995%, 31.17981%, 89.530945%)" offset="0.492188"/><stop stop-opacity="1" stop-color="rgb(44.831848%, 30.900574%, 89.480591%)" offset="0.496094"/><stop stop-opacity="1" stop-color="rgb(44.795227%, 30.621338%, 89.431763%)" offset="0.5"/><stop stop-opacity="1" stop-color="rgb(44.75708%, 30.342102%, 89.382935%)" offset="0.503906"/><stop stop-opacity="1" stop-color="rgb(44.718933%, 30.064392%, 89.334106%)" offset="0.507812"/><stop stop-opacity="1" stop-color="rgb(44.680786%, 29.785156%, 89.283752%)" offset="0.511719"/><stop stop-opacity="1" stop-color="rgb(44.644165%, 29.507446%, 89.234924%)" offset="0.515625"/><stop stop-opacity="1" stop-color="rgb(44.606018%, 29.22821%, 89.186096%)" offset="0.519531"/><stop stop-opacity="1" stop-color="rgb(44.569397%, 28.948975%, 89.137268%)" offset="0.523438"/><stop stop-opacity="1" stop-color="rgb(44.53125%, 28.669739%, 89.086914%)" offset="0.527344"/><stop stop-opacity="1" stop-color="rgb(44.493103%, 28.392029%, 89.038086%)" offset="0.53125"/><stop stop-opacity="1" stop-color="rgb(44.454956%, 28.112793%, 88.987732%)" offset="0.535156"/><stop stop-opacity="1" stop-color="rgb(44.418335%, 27.835083%, 88.938904%)" offset="0.539063"/><stop stop-opacity="1" stop-color="rgb(44.380188%, 27.555847%, 88.890076%)" offset="0.542969"/><stop stop-opacity="1" stop-color="rgb(44.343567%, 27.278137%, 88.841248%)" offset="0.546875"/><stop stop-opacity="1" stop-color="rgb(44.30542%, 26.998901%, 88.790894%)" offset="0.550781"/><stop stop-opacity="1" stop-color="rgb(44.267273%, 26.719666%, 88.742065%)" offset="0.554688"/><stop stop-opacity="1" stop-color="rgb(44.229126%, 26.44043%, 88.693237%)" offset="0.558594"/><stop stop-opacity="1" stop-color="rgb(44.192505%, 26.16272%, 88.644409%)" offset="0.5625"/><stop stop-opacity="1" stop-color="rgb(44.154358%, 25.883484%, 88.594055%)" offset="0.566406"/><stop stop-opacity="1" stop-color="rgb(44.116211%, 25.605774%, 88.545227%)" offset="0.570313"/><stop stop-opacity="1" stop-color="rgb(44.078064%, 25.326538%, 88.496399%)" offset="0.574219"/><stop stop-opacity="1" stop-color="rgb(44.041443%, 25.048828%, 88.447571%)" offset="0.578125"/><stop stop-opacity="1" stop-color="rgb(44.003296%, 24.769592%, 88.397217%)" offset="0.582031"/><stop stop-opacity="1" stop-color="rgb(43.966675%, 24.490356%, 88.348389%)" offset="0.585938"/><stop stop-opacity="1" stop-color="rgb(43.928528%, 24.211121%, 88.298035%)" offset="0.589844"/><stop stop-opacity="1" stop-color="rgb(43.890381%, 23.933411%, 88.249207%)" offset="0.59375"/><stop stop-opacity="1" stop-color="rgb(43.852234%, 23.654175%, 88.200378%)" offset="0.597656"/><stop stop-opacity="1" stop-color="rgb(43.815613%, 23.376465%, 88.15155%)" offset="0.601562"/><stop stop-opacity="1" stop-color="rgb(43.777466%, 23.097229%, 88.101196%)" offset="0.605469"/><stop stop-opacity="1" stop-color="rgb(43.740845%, 22.819519%, 88.052368%)" offset="0.609375"/><stop stop-opacity="1" stop-color="rgb(43.702698%, 22.540283%, 88.00354%)" offset="0.613281"/><stop stop-opacity="1" stop-color="rgb(43.664551%, 22.261047%, 87.954712%)" offset="0.617188"/><stop stop-opacity="1" stop-color="rgb(43.626404%, 21.981812%, 87.904358%)" offset="0.621094"/><stop stop-opacity="1" stop-color="rgb(43.589783%, 21.704102%, 87.85553%)" offset="0.625"/><stop stop-opacity="1" stop-color="rgb(43.551636%, 21.424866%, 87.806702%)" offset="0.628906"/><stop stop-opacity="1" stop-color="rgb(43.513489%, 21.147156%, 87.757874%)" offset="0.632813"/><stop stop-opacity="1" stop-color="rgb(43.475342%, 20.86792%, 87.70752%)" offset="0.636719"/><stop stop-opacity="1" stop-color="rgb(43.438721%, 20.59021%, 87.658691%)" offset="0.640625"/><stop stop-opacity="1" stop-color="rgb(43.400574%, 20.310974%, 87.608337%)" offset="0.644531"/><stop stop-opacity="1" stop-color="rgb(43.363953%, 20.031738%, 87.559509%)" offset="0.648438"/><stop stop-opacity="1" stop-color="rgb(43.325806%, 19.752502%, 87.510681%)" offset="0.652344"/><stop stop-opacity="1" stop-color="rgb(43.287659%, 19.474792%, 87.461853%)" offset="0.65625"/><stop stop-opacity="1" stop-color="rgb(43.249512%, 19.195557%, 87.411499%)" offset="0.660156"/><stop stop-opacity="1" stop-color="rgb(43.212891%, 18.917847%, 87.362671%)" offset="0.664062"/><stop stop-opacity="1" stop-color="rgb(43.174744%, 18.638611%, 87.313843%)" offset="0.667969"/><stop stop-opacity="1" stop-color="rgb(43.138123%, 18.360901%, 87.265015%)" offset="0.671875"/><stop stop-opacity="1" stop-color="rgb(43.099976%, 18.081665%, 87.214661%)" offset="0.675781"/><stop stop-opacity="1" stop-color="rgb(43.061829%, 17.802429%, 87.165833%)" offset="0.679688"/><stop stop-opacity="1" stop-color="rgb(43.023682%, 17.523193%, 87.117004%)" offset="0.683594"/><stop stop-opacity="1" stop-color="rgb(42.987061%, 17.245483%, 87.068176%)" offset="0.6875"/><stop stop-opacity="1" stop-color="rgb(42.948914%, 16.966248%, 87.017822%)" offset="0.691406"/><stop stop-opacity="1" stop-color="rgb(42.910767%, 16.688538%, 86.968994%)" offset="0.695313"/><stop stop-opacity="1" stop-color="rgb(42.87262%, 16.409302%, 86.91864%)" offset="0.699219"/><stop stop-opacity="1" stop-color="rgb(42.835999%, 16.131592%, 86.869812%)" offset="0.703125"/><stop stop-opacity="1" stop-color="rgb(42.797852%, 15.852356%, 86.820984%)" offset="0.707031"/><stop stop-opacity="1" stop-color="rgb(42.76123%, 15.57312%, 86.772156%)" offset="0.710938"/><stop stop-opacity="1" stop-color="rgb(42.723083%, 15.293884%, 86.721802%)" offset="0.714844"/><stop stop-opacity="1" stop-color="rgb(42.684937%, 15.016174%, 86.672974%)" offset="0.71875"/><stop stop-opacity="1" stop-color="rgb(42.64679%, 14.736938%, 86.624146%)" offset="0.722656"/><stop stop-opacity="1" stop-color="rgb(42.610168%, 14.459229%, 86.575317%)" offset="0.726562"/><stop stop-opacity="1" stop-color="rgb(42.572021%, 14.179993%, 86.524963%)" offset="0.730469"/><stop stop-opacity="1" stop-color="rgb(42.5354%, 13.900757%, 86.476135%)" offset="0.734375"/><stop stop-opacity="1" stop-color="rgb(42.497253%, 13.621521%, 86.427307%)" offset="0.738281"/><stop stop-opacity="1" stop-color="rgb(42.459106%, 13.343811%, 86.378479%)" offset="0.742188"/><stop stop-opacity="1" stop-color="rgb(42.428589%, 13.121033%, 86.338806%)" offset="0.746094"/><stop stop-opacity="1" stop-color="rgb(42.399597%, 12.89978%, 86.299133%)" offset="0.75"/><stop stop-opacity="1" stop-color="rgb(42.399597%, 12.89978%, 86.299133%)" offset="1"/></linearGradient><clipPath id="id4"><path d="M 40.21875 34.535156 L 61 34.535156 L 61 109.625 L 40.21875 109.625 Z M 40.21875 34.535156 " clip-rule="nonzero"/></clipPath><clipPath id="id5"><path d="M 60 34.535156 L 82 34.535156 L 82 109.625 L 60 109.625 Z M 60 34.535156 " clip-rule="nonzero"/></clipPath><clipPath id="id6"><path d="M 81 34.535156 L 102 34.535156 L 102 109.625 L 81 109.625 Z M 81 34.535156 " clip-rule="nonzero"/></clipPath><clipPath id="id7"><path d="M 101 34.535156 L 122.578125 34.535156 L 122.578125 109.625 L 101 109.625 Z M 101 34.535156 " clip-rule="nonzero"/></clipPath></defs><g fill="#ffffff" fill-opacity="1"><g transform="translate(157.580956, 63.688576)"><g><path d="M 1.875 0 L 1.875 -28.03125 L 15.234375 -28.03125 L 15.234375 -22.453125 L 8.390625 -22.453125 L 8.390625 -16.265625 L 14.390625 -16.265625 L 14.390625 -10.671875 L 8.390625 -10.671875 L 8.390625 0 Z M 1.875 0 "/></g></g></g><g fill="#ffffff" fill-opacity="1"><g transform="translate(176.365811, 63.688576)"><g><path d="M 1.875 0 L 1.875 -28.03125 L 8.390625 -28.03125 L 8.390625 0 Z M 1.875 0 "/></g></g></g><g fill="#ffffff" fill-opacity="1"><g transform="translate(189.283225, 63.688576)"><g><path d="M 13.6875 0 L 8.234375 -13.8125 L 8.0625 -13.8125 L 8.0625 0 L 1.828125 0 L 1.828125 -28.03125 L 8.109375 -28.03125 L 13.046875 -15.6875 L 13.28125 -15.6875 L 13.28125 -28.03125 L 19.484375 -28.03125 L 19.484375 0 Z M 13.6875 0 "/></g></g></g><g fill="#ffffff" fill-opacity="1"><g transform="translate(213.283593, 63.688576)"><g><path d="M 1.875 -28.03125 L 9.78125 -28.03125 C 12.738281 -28.03125 14.847656 -27.613281 16.109375 -26.78125 C 17.378906 -25.957031 18.160156 -24.660156 18.453125 -22.890625 C 18.753906 -21.128906 18.90625 -18.171875 18.90625 -14.015625 C 18.90625 -9.890625 18.753906 -6.9375 18.453125 -5.15625 C 18.160156 -3.375 17.378906 -2.066406 16.109375 -1.234375 C 14.847656 -0.410156 12.738281 0 9.78125 0 L 1.875 0 Z M 9.734375 -5.578125 C 10.710938 -5.578125 11.359375 -5.707031 11.671875 -5.96875 C 11.984375 -6.226562 12.1875 -6.875 12.28125 -7.90625 C 12.375 -8.9375 12.421875 -10.972656 12.421875 -14.015625 C 12.421875 -17.035156 12.375 -19.066406 12.28125 -20.109375 C 12.1875 -21.148438 11.976562 -21.800781 11.65625 -22.0625 C 11.332031 -22.320312 10.691406 -22.453125 9.734375 -22.453125 L 8.359375 -22.453125 L 8.359375 -5.578125 Z M 9.734375 -5.578125 "/></g></g></g><g fill="#ffffff" fill-opacity="1"><g transform="translate(236.265307, 63.688576)"><g/></g></g><g fill="#ffffff" fill-opacity="1"><g transform="translate(246.208254, 63.688576)"><g><path d="M 18.25 0 L 15.859375 -18.296875 L 15.5625 -18.296875 L 13.203125 0 L 4.28125 0 L 0.578125 -28.03125 L 7.125 -28.03125 L 9 -6.84375 L 9.328125 -6.84375 L 12.0625 -28.03125 L 19.59375 -28.03125 L 22.40625 -6.84375 L 22.734375 -6.84375 L 24.453125 -28.03125 L 30.890625 -28.03125 L 27.140625 0 Z M 18.25 0 "/></g></g></g><g fill="#ffffff" fill-opacity="1"><g transform="translate(280.191426, 63.688576)"><g><path d="M 12.75 0 L 12.75 -11.171875 L 8.359375 -11.171875 L 8.359375 0 L 1.828125 0 L 1.828125 -28.03125 L 8.359375 -28.03125 L 8.359375 -17.078125 L 12.75 -17.078125 L 12.75 -28.03125 L 19.28125 -28.03125 L 19.28125 0 Z M 12.75 0 "/></g></g></g><g fill="#ffffff" fill-opacity="1"><g transform="translate(304.028804, 63.688576)"><g><path d="M 1.875 0 L 1.875 -28.03125 L 15.859375 -28.03125 L 15.859375 -22.453125 L 8.390625 -22.453125 L 8.390625 -16.953125 L 14.828125 -16.953125 L 14.828125 -11.375 L 8.390625 -11.375 L 8.390625 -5.578125 L 15.859375 -5.578125 L 15.859375 0 Z M 1.875 0 "/></g></g></g><g fill="#ffffff" fill-opacity="1"><g transform="translate(323.995298, 63.688576)"><g><path d="M 12.953125 0 L 10.46875 -9.453125 L 8.390625 -9.453125 L 8.390625 0 L 1.875 0 L 1.875 -28.03125 L 11.734375 -28.03125 C 13.773438 -28.03125 15.320312 -27.691406 16.375 -27.015625 C 17.4375 -26.335938 18.144531 -25.347656 18.5 -24.046875 C 18.851562 -22.742188 19.03125 -20.976562 19.03125 -18.75 C 19.03125 -16.675781 18.859375 -14.976562 18.515625 -13.65625 C 18.179688 -12.34375 17.5 -11.347656 16.46875 -10.671875 L 19.6875 0 Z M 10.109375 -14.875 C 10.890625 -14.875 11.429688 -14.945312 11.734375 -15.09375 C 12.035156 -15.25 12.238281 -15.578125 12.34375 -16.078125 C 12.457031 -16.578125 12.515625 -17.453125 12.515625 -18.703125 C 12.515625 -19.953125 12.460938 -20.820312 12.359375 -21.3125 C 12.265625 -21.800781 12.0625 -22.117188 11.75 -22.265625 C 11.4375 -22.421875 10.890625 -22.5 10.109375 -22.5 L 8.390625 -22.5 L 8.390625 -14.875 Z M 10.109375 -14.875 "/></g></g></g><g fill="#ffffff" fill-opacity="1"><g transform="translate(347.017754, 63.688576)"><g><path d="M 1.875 0 L 1.875 -28.03125 L 15.859375 -28.03125 L 15.859375 -22.453125 L 8.390625 -22.453125 L 8.390625 -16.953125 L 14.828125 -16.953125 L 14.828125 -11.375 L 8.390625 -11.375 L 8.390625 -5.578125 L 15.859375 -5.578125 L 15.859375 0 Z M 1.875 0 "/></g></g></g><g fill="#ffffff" fill-opacity="1"><g transform="translate(157.580956, 108.688573)"><g><path d="M 1.875 0 L 1.875 -28.03125 L 8.390625 -28.03125 L 8.390625 0 Z M 1.875 0 "/></g></g></g><g fill="#ffffff" fill-opacity="1"><g transform="translate(170.498369, 108.688573)"><g/></g></g><g fill="#ffffff" fill-opacity="1"><g transform="translate(180.441314, 108.688573)"><g><path d="M 13.984375 0 L 13.125 -5.21875 L 7.5 -5.21875 L 6.640625 0 L 0.203125 0 L 5.625 -28.03125 L 15.125 -28.03125 L 20.53125 0 Z M 10.4375 -22.09375 L 10.140625 -22.09375 L 8.359375 -10.640625 L 12.21875 -10.640625 Z M 10.4375 -22.09375 "/></g></g></g><g fill="#ffffff" fill-opacity="1"><g transform="translate(203.871234, 108.688573)"><g><path d="M 20.984375 0 L 20.984375 -19.84375 L 20.65625 -19.84375 L 17.359375 0 L 11.578125 0 L 8.3125 -19.84375 L 7.984375 -19.84375 L 7.984375 0 L 1.828125 0 L 1.828125 -28.03125 L 11.609375 -28.03125 L 14.46875 -9.859375 L 14.796875 -9.859375 L 17.640625 -28.03125 L 27.21875 -28.03125 L 27.21875 0 Z M 20.984375 0 "/></g></g></g><g clip-path="url(#id1)"><g clip-path="url(#id2)"><path fill="url(#id3)" d="M 18.359375 134.835938 L 144.320312 134.835938 L 144.320312 8.878906 L 18.359375 8.878906 Z M 18.359375 134.835938 " fill-rule="nonzero"/></g></g><g clip-path="url(#id4)"><path fill="#ffffff" d="M 40.371094 109.625 L 60.863281 84.570312 L 60.863281 34.535156 L 40.277344 59.703125 Z M 40.371094 109.625 " fill-opacity="1" fill-rule="nonzero"/></g><g clip-path="url(#id5)"><path fill="#c0bff2" d="M 60.863281 34.535156 L 81.394531 59.585938 L 81.394531 109.625 L 60.863281 84.453125 Z M 60.863281 34.535156 " fill-opacity="1" fill-rule="nonzero"/></g><g clip-path="url(#id6)"><path fill="#dbd5f4" d="M 81.488281 109.625 L 101.980469 84.570312 L 101.980469 34.535156 L 81.394531 59.703125 Z M 81.488281 109.625 " fill-opacity="1" fill-rule="nonzero"/></g><g clip-path="url(#id7)"><path fill="#a287ec" d="M 101.980469 34.535156 L 122.515625 59.585938 L 122.515625 109.625 L 101.980469 84.453125 Z M 101.980469 34.535156 " fill-opacity="1" fill-rule="nonzero"/></g></svg>