<svg xmlns="http://www.w3.org/2000/svg" xmlns:xlink="http://www.w3.org/1999/xlink" width="250" zoomAndPan="magnify" viewBox="0 0 187.5 112.499997" height="150" preserveAspectRatio="xMidYMid meet" version="1.0"><defs><g/><clipPath id="id1"><path d="M 6.15625 32 L 71.289062 32 L 71.289062 78.9375 L 6.15625 78.9375 Z M 6.15625 32 " clip-rule="nonzero"/></clipPath></defs><g clip-path="url(#id1)"><path fill="#ffffff" d="M 47.414062 38.398438 L 39.730469 36.980469 C 39.03125 36.851562 38.414062 36.851562 37.714844 36.980469 L 30.03125 38.398438 C 28.6875 37.558594 27.105469 37.074219 25.410156 37.074219 C 20.578125 37.074219 16.664062 41.003906 16.664062 45.855469 C 16.664062 50.707031 20.578125 54.636719 25.410156 54.636719 C 30.238281 54.636719 34.15625 50.707031 34.15625 45.855469 C 34.15625 45.3125 34.105469 44.78125 34.011719 44.265625 L 36.324219 43.835938 C 36.605469 44.902344 37.574219 45.6875 38.722656 45.6875 C 39.871094 45.6875 40.839844 44.902344 41.117188 43.835938 L 43.433594 44.265625 C 43.339844 44.78125 43.289062 45.3125 43.289062 45.855469 C 43.289062 50.707031 47.207031 54.636719 52.035156 54.636719 C 56.867188 54.636719 60.78125 50.707031 60.78125 45.855469 C 60.78125 41.003906 56.867188 37.074219 52.035156 37.074219 C 50.339844 37.074219 48.757812 37.558594 47.414062 38.398438 Z M 68.496094 56.171875 C 68.808594 53.273438 69.617188 46.582031 68.757812 44.621094 C 67.710938 41.875 67.382812 39.128906 65.71875 36.058594 C 64.859375 34.476562 63.417969 33.742188 61.683594 33.277344 L 48.585938 32.375 C 46.066406 31.773438 46.085938 34.90625 47.863281 36.214844 C 54.703125 33.246094 62.523438 38.257812 62.523438 45.894531 C 62.523438 51.71875 57.820312 56.4375 52.023438 56.4375 C 46.917969 56.4375 42.664062 52.777344 41.722656 47.929688 C 40.335938 48.421875 39.929688 50.027344 40.683594 51.011719 L 44.855469 57.300781 C 46.007812 59.039062 51.300781 60.113281 53.3125 60.65625 C 53.796875 61.230469 54.335938 61.707031 54.710938 62.226562 C 55.1875 62.886719 55.058594 72.394531 55.074219 76.75 C 55.082031 77.914062 56.023438 78.859375 57.179688 78.867188 C 60.730469 78.890625 65.472656 78.910156 69.085938 78.933594 C 69.703125 78.9375 70.234375 78.707031 70.652344 78.25 C 71.074219 77.796875 71.289062 77.242188 71.207031 76.625 Z M 8.949219 56.171875 C 8.636719 53.273438 7.828125 46.582031 8.6875 44.621094 C 9.734375 41.875 10.0625 39.128906 11.726562 36.058594 C 12.585938 34.476562 14.027344 33.742188 15.761719 33.277344 L 28.859375 32.375 C 31.375 31.773438 31.359375 34.90625 29.582031 36.214844 C 22.738281 33.246094 14.921875 38.257812 14.921875 45.894531 C 14.921875 51.71875 19.625 56.4375 25.421875 56.4375 C 30.527344 56.4375 34.78125 52.777344 35.722656 47.929688 C 37.109375 48.421875 37.515625 50.027344 36.761719 51.011719 L 32.589844 57.300781 C 31.4375 59.039062 26.144531 60.113281 24.132812 60.65625 C 23.648438 61.230469 23.109375 61.707031 22.734375 62.226562 C 22.257812 62.886719 22.386719 72.394531 22.367188 76.75 C 22.363281 77.914062 21.421875 78.859375 20.265625 78.867188 C 16.714844 78.890625 11.972656 78.910156 8.359375 78.933594 C 7.742188 78.9375 7.210938 78.707031 6.792969 78.25 C 6.371094 77.796875 6.15625 77.242188 6.234375 76.625 Z M 25.410156 39.03125 C 21.65625 39.03125 18.613281 42.085938 18.613281 45.855469 C 18.613281 49.625 21.65625 52.679688 25.410156 52.679688 C 29.164062 52.679688 32.207031 49.625 32.207031 45.855469 C 32.207031 42.085938 29.164062 39.03125 25.410156 39.03125 Z M 38.722656 42.109375 C 39.320312 42.109375 39.808594 42.59375 39.808594 43.199219 C 39.808594 43.800781 39.324219 44.289062 38.722656 44.289062 C 38.121094 44.289062 37.636719 43.800781 37.636719 43.199219 C 37.636719 42.59375 38.121094 42.109375 38.722656 42.109375 Z M 45.351562 44.617188 C 45.699219 42.710938 46.839844 41.078125 48.414062 40.082031 L 48.464844 40.050781 L 48.464844 40.046875 C 48.496094 40.027344 48.527344 40.011719 48.5625 39.992188 L 48.5625 39.988281 L 48.613281 39.957031 C 48.644531 39.9375 48.679688 39.921875 48.710938 39.902344 L 48.714844 39.902344 L 48.765625 39.871094 C 48.796875 39.855469 48.824219 39.839844 48.855469 39.824219 L 48.890625 39.804688 L 48.972656 39.761719 L 49.023438 39.738281 L 49.03125 39.734375 C 49.066406 39.71875 49.097656 39.703125 49.128906 39.6875 L 49.195312 39.65625 L 49.285156 39.613281 L 49.289062 39.613281 L 49.34375 39.589844 L 49.351562 39.585938 L 49.433594 39.550781 L 49.507812 39.519531 L 49.574219 39.492188 L 49.671875 39.457031 L 49.730469 39.433594 C 49.761719 39.421875 49.796875 39.410156 49.828125 39.398438 L 49.882812 39.382812 C 49.917969 39.367188 49.957031 39.355469 49.992188 39.34375 L 50.039062 39.332031 C 50.074219 39.320312 50.109375 39.308594 50.144531 39.300781 L 50.207031 39.28125 C 50.246094 39.269531 50.28125 39.261719 50.320312 39.25 L 50.347656 39.242188 C 50.394531 39.234375 50.441406 39.21875 50.484375 39.210938 L 50.515625 39.203125 C 50.5625 39.191406 50.609375 39.183594 50.652344 39.171875 L 50.683594 39.167969 C 50.730469 39.15625 50.777344 39.148438 50.824219 39.140625 L 50.847656 39.136719 C 50.894531 39.125 50.945312 39.117188 50.996094 39.109375 L 51.007812 39.109375 C 51.058594 39.101562 51.109375 39.09375 51.160156 39.085938 L 51.175781 39.085938 C 51.230469 39.078125 51.28125 39.074219 51.335938 39.066406 L 51.34375 39.066406 C 51.398438 39.0625 51.453125 39.054688 51.507812 39.050781 L 51.519531 39.050781 C 51.574219 39.046875 51.628906 39.042969 51.683594 39.039062 L 51.6875 39.039062 C 51.742188 39.039062 51.800781 39.035156 51.859375 39.035156 L 51.863281 39.035156 C 51.921875 39.03125 51.980469 39.03125 52.035156 39.03125 C 55.789062 39.03125 58.832031 42.085938 58.832031 45.855469 C 58.832031 49.625 55.789062 52.679688 52.035156 52.679688 C 48.28125 52.679688 45.238281 49.625 45.238281 45.855469 C 45.238281 45.800781 45.242188 45.742188 45.242188 45.683594 L 45.242188 45.675781 C 45.242188 45.621094 45.246094 45.5625 45.25 45.507812 L 45.25 45.5 C 45.25 45.449219 45.253906 45.398438 45.257812 45.347656 L 45.257812 45.328125 C 45.265625 45.273438 45.269531 45.222656 45.273438 45.167969 L 45.277344 45.144531 C 45.28125 45.097656 45.285156 45.050781 45.292969 45.007812 L 45.296875 44.96875 C 45.300781 44.925781 45.308594 44.882812 45.316406 44.839844 L 45.320312 44.792969 C 45.328125 44.753906 45.335938 44.710938 45.34375 44.671875 L 45.351562 44.625 Z M 45.351562 44.617188 " fill-opacity="1" fill-rule="evenodd"/></g><g fill="#ffffff" fill-opacity="1"><g transform="translate(75.73988, 49.75415)"><g><path d="M 1.546875 -1.917969 C 1.546875 -1.320312 1.777344 -0.796875 2.160156 -0.414062 C 2.539062 -0.0234375 3.0625 0.21875 3.675781 0.21875 C 4.285156 0.21875 4.808594 -0.0234375 5.191406 -0.414062 C 5.570312 -0.796875 5.800781 -1.320312 5.800781 -1.917969 L 5.800781 -4.492188 L 8.527344 -4.492188 C 9.136719 -4.492188 9.660156 -4.722656 10.054688 -5.101562 C 10.433594 -5.484375 10.664062 -6.019531 10.664062 -6.617188 C 10.664062 -7.230469 10.433594 -7.742188 10.054688 -8.101562 C 9.660156 -8.449219 9.136719 -8.644531 8.527344 -8.644531 L 5.800781 -8.644531 L 5.800781 -10.03125 L 10.140625 -10.03125 C 10.882812 -10.03125 11.414062 -10.304688 11.765625 -10.707031 C 12.113281 -11.109375 12.265625 -11.65625 12.253906 -12.179688 C 12.222656 -12.886719 11.929688 -13.367188 11.515625 -13.660156 C 11.097656 -13.957031 10.574219 -14.074219 10.140625 -14.074219 L 2.703125 -14.074219 C 2.148438 -14.074219 1.820312 -13.988281 1.625 -13.835938 C 1.429688 -13.683594 1.351562 -13.453125 1.351562 -13.191406 C 1.351562 -12.976562 1.382812 -12.746094 1.4375 -12.507812 C 1.492188 -12.253906 1.539062 -12.015625 1.546875 -11.785156 Z M 1.546875 -1.917969 "/></g></g></g><g fill="#ffffff" fill-opacity="1"><g transform="translate(89.181538, 49.75415)"><g><path d="M 5.800781 -11.917969 C 5.746094 -12.832031 5.386719 -13.367188 4.832031 -13.683594 C 4.273438 -13.988281 3.53125 -14.074219 2.703125 -14.074219 C 2.148438 -14.074219 1.820312 -13.988281 1.625 -13.835938 C 1.429688 -13.683594 1.351562 -13.453125 1.351562 -13.191406 C 1.351562 -12.976562 1.382812 -12.746094 1.4375 -12.507812 C 1.492188 -12.253906 1.539062 -12.015625 1.546875 -11.785156 L 1.546875 -1.917969 C 1.546875 -1.320312 1.777344 -0.796875 2.160156 -0.414062 C 2.539062 -0.0234375 3.0625 0.21875 3.675781 0.21875 C 4.285156 0.21875 4.808594 -0.0234375 5.191406 -0.414062 C 5.570312 -0.796875 5.800781 -1.320312 5.800781 -1.917969 Z M 5.800781 -11.917969 "/></g></g></g><g fill="#ffffff" fill-opacity="1"><g transform="translate(97.096215, 49.75415)"><g><path d="M 14.042969 -11.9375 C 14.042969 -12.886719 13.738281 -13.410156 13.257812 -13.714844 C 12.769531 -14.011719 12.089844 -14.074219 11.382812 -14.074219 C 10.597656 -14.074219 10.160156 -14.023438 9.910156 -13.890625 C 9.648438 -13.75 9.59375 -13.53125 9.59375 -13.191406 C 9.59375 -12.976562 9.628906 -12.734375 9.691406 -12.484375 C 9.746094 -12.234375 9.78125 -11.972656 9.78125 -11.710938 L 9.800781 -7.859375 L 5.375 -13.191406 C 4.949219 -13.628906 4.613281 -13.835938 4.21875 -13.957031 C 3.816406 -14.074219 3.359375 -14.074219 2.703125 -14.074219 C 2.148438 -14.074219 1.820312 -13.988281 1.625 -13.835938 C 1.429688 -13.683594 1.351562 -13.453125 1.351562 -13.191406 C 1.351562 -12.976562 1.382812 -12.746094 1.4375 -12.507812 C 1.492188 -12.253906 1.539062 -12.015625 1.546875 -11.785156 L 1.546875 -1.917969 C 1.546875 -1.320312 1.777344 -0.785156 2.160156 -0.402344 C 2.539062 -0.0117188 3.0625 0.21875 3.675781 0.21875 C 4.273438 0.21875 4.796875 -0.0117188 5.167969 -0.390625 C 5.539062 -0.773438 5.757812 -1.308594 5.757812 -1.917969 C 5.757812 -2.605469 5.757812 -3.28125 5.769531 -3.96875 C 5.777344 -4.65625 5.777344 -5.332031 5.777344 -6.019531 L 10.367188 -0.480469 C 10.792969 0 11.359375 0.21875 11.929688 0.21875 C 12.582031 0.21875 13.117188 -0.0546875 13.476562 -0.492188 C 13.835938 -0.925781 14.042969 -1.515625 14.042969 -2.160156 Z M 14.042969 -11.9375 "/></g></g></g><g fill="#ffffff" fill-opacity="1"><g transform="translate(113.24141, 49.75415)"><g><path d="M 6.96875 0.21875 C 8.929688 0.21875 10.707031 -0.578125 12.015625 -1.875 C 13.3125 -3.171875 14.109375 -4.960938 14.109375 -6.933594 C 14.109375 -8.242188 13.75 -9.476562 13.128906 -10.53125 C 12.507812 -11.589844 11.621094 -12.472656 10.566406 -13.09375 C 9.507812 -13.714844 8.277344 -14.074219 6.96875 -14.074219 L 2.703125 -14.074219 C 2.148438 -14.074219 1.820312 -13.988281 1.625 -13.835938 C 1.429688 -13.683594 1.351562 -13.453125 1.351562 -13.191406 C 1.351562 -12.976562 1.382812 -12.746094 1.4375 -12.507812 C 1.492188 -12.253906 1.539062 -12.015625 1.546875 -11.785156 L 1.546875 -1.917969 C 1.546875 -1.753906 1.558594 -1.613281 1.59375 -1.472656 C 1.691406 -0.992188 1.953125 -0.566406 2.3125 -0.261719 C 2.671875 0.0429688 3.152344 0.21875 3.675781 0.21875 Z M 9.84375 -6.933594 C 9.84375 -6.0625 9.519531 -5.351562 8.996094 -4.839844 C 8.472656 -4.328125 7.753906 -4.023438 6.96875 -3.980469 L 5.800781 -3.980469 L 5.800781 -10.085938 L 6.96875 -10.085938 C 7.753906 -10.042969 8.472656 -9.738281 8.996094 -9.214844 C 9.519531 -8.679688 9.84375 -7.90625 9.84375 -6.933594 Z M 9.84375 -6.933594 "/></g></g></g><g fill="#ffffff" fill-opacity="1"><g transform="translate(128.776128, 49.75415)"><g/></g></g><g fill="#ffffff" fill-opacity="1"><g transform="translate(134.619548, 49.75415)"><g><path d="M 12.953125 -11.9375 C 12.953125 -12.539062 12.714844 -13.0625 12.320312 -13.453125 C 11.929688 -13.835938 11.394531 -14.074219 10.816406 -14.074219 L 2.464844 -14.074219 C 1.863281 -14.074219 1.351562 -13.847656 0.96875 -13.464844 C 0.578125 -13.074219 0.347656 -12.550781 0.347656 -11.9375 C 0.347656 -11.339844 0.578125 -10.804688 0.96875 -10.421875 C 1.351562 -10.042969 1.863281 -9.8125 2.464844 -9.8125 L 4.535156 -9.8125 L 4.578125 -1.917969 C 4.578125 -1.320312 4.796875 -0.796875 5.167969 -0.414062 C 5.539062 -0.0234375 6.0625 0.21875 6.671875 0.21875 C 7.273438 0.21875 7.796875 -0.0117188 8.167969 -0.402344 C 8.539062 -0.785156 8.753906 -1.320312 8.753906 -1.917969 L 8.808594 -9.8125 L 10.816406 -9.8125 C 11.394531 -9.8125 11.929688 -10.054688 12.320312 -10.433594 C 12.714844 -10.816406 12.953125 -11.339844 12.953125 -11.9375 Z M 12.953125 -11.9375 "/></g></g></g><g fill="#ffffff" fill-opacity="1"><g transform="translate(148.649881, 49.75415)"><g><path d="M 14.140625 -11.9375 C 14.140625 -12.855469 13.761719 -13.390625 13.171875 -13.695312 C 12.582031 -14 11.808594 -14.074219 11.035156 -14.074219 C 10.476562 -14.074219 10.160156 -13.988281 9.953125 -13.835938 C 9.746094 -13.683594 9.691406 -13.453125 9.691406 -13.191406 C 9.691406 -12.976562 9.726562 -12.746094 9.78125 -12.507812 C 9.835938 -12.253906 9.867188 -12.015625 9.878906 -11.785156 L 9.878906 -8.808594 L 5.800781 -8.808594 L 5.800781 -11.9375 C 5.800781 -12.84375 5.417969 -13.378906 4.851562 -13.683594 C 4.273438 -13.988281 3.5 -14.074219 2.703125 -14.074219 C 2.148438 -14.074219 1.820312 -13.988281 1.625 -13.835938 C 1.429688 -13.683594 1.351562 -13.453125 1.351562 -13.191406 C 1.351562 -12.976562 1.382812 -12.746094 1.4375 -12.507812 C 1.492188 -12.253906 1.539062 -12.015625 1.546875 -11.785156 L 1.546875 -1.917969 C 1.546875 -1.320312 1.777344 -0.796875 2.160156 -0.414062 C 2.539062 -0.0234375 3.0625 0.21875 3.675781 0.21875 C 4.285156 0.21875 4.808594 -0.0234375 5.191406 -0.414062 C 5.570312 -0.796875 5.800781 -1.320312 5.800781 -1.917969 L 5.800781 -4.546875 L 9.878906 -4.546875 L 9.878906 -1.917969 C 9.878906 -1.320312 10.105469 -0.796875 10.488281 -0.414062 C 10.871094 -0.0234375 11.40625 0.21875 12.003906 0.21875 C 12.613281 0.21875 13.136719 -0.0234375 13.53125 -0.414062 C 13.914062 -0.796875 14.140625 -1.320312 14.140625 -1.917969 Z M 14.140625 -11.9375 "/></g></g></g><g fill="#ffffff" fill-opacity="1"><g transform="translate(164.740571, 49.75415)"><g><path d="M 12.386719 -1.917969 C 12.386719 -2.53125 12.15625 -3.0625 11.777344 -3.445312 C 11.382812 -3.828125 10.847656 -4.054688 10.25 -4.054688 L 5.800781 -4.054688 L 5.800781 -4.972656 L 8.886719 -4.972656 C 9.703125 -4.972656 10.347656 -5.40625 10.683594 -6.148438 C 10.980469 -6.792969 10.847656 -7.46875 10.5 -7.992188 C 10.140625 -8.515625 9.539062 -8.875 8.886719 -8.875 L 5.800781 -8.875 L 5.800781 -10.03125 L 10.25 -10.03125 C 11.175781 -10.03125 11.796875 -10.476562 12.101562 -11.078125 C 12.398438 -11.675781 12.386719 -12.429688 12.082031 -13.03125 C 11.765625 -13.628906 11.152344 -14.074219 10.25 -14.074219 L 2.703125 -14.074219 C 2.148438 -14.074219 1.820312 -13.988281 1.625 -13.835938 C 1.429688 -13.683594 1.351562 -13.453125 1.351562 -13.191406 C 1.351562 -12.976562 1.382812 -12.746094 1.4375 -12.507812 C 1.492188 -12.253906 1.539062 -12.015625 1.546875 -11.785156 L 1.546875 -1.917969 C 1.546875 -1.308594 1.777344 -0.773438 2.160156 -0.390625 C 2.539062 -0.0117188 3.0625 0.21875 3.675781 0.21875 L 10.25 0.21875 C 10.847656 0.21875 11.382812 -0.0117188 11.777344 -0.402344 C 12.15625 -0.785156 12.386719 -1.320312 12.386719 -1.917969 Z M 12.386719 -1.917969 "/></g></g></g><g fill="#ffffff" fill-opacity="1"><g transform="translate(75.73988, 72.387155)"><g><path d="M 0.675781 -6.933594 C 0.675781 -4.960938 1.472656 -3.171875 2.769531 -1.875 C 4.066406 -0.578125 5.855469 0.21875 7.828125 0.21875 C 9.792969 0.21875 11.566406 -0.578125 12.875 -1.875 C 14.175781 -3.171875 14.96875 -4.960938 14.96875 -6.933594 C 14.96875 -8.242188 14.609375 -9.476562 13.988281 -10.53125 C 13.367188 -11.589844 12.484375 -12.472656 11.425781 -13.09375 C 10.367188 -13.714844 9.136719 -14.074219 7.828125 -14.074219 C 5.855469 -14.074219 4.066406 -13.28125 2.769531 -11.984375 C 1.472656 -10.675781 0.675781 -8.898438 0.675781 -6.933594 Z M 4.949219 -6.890625 C 4.949219 -7.675781 5.265625 -8.429688 5.789062 -8.972656 C 6.3125 -9.519531 7.03125 -9.855469 7.828125 -9.855469 C 8.613281 -9.855469 9.332031 -9.507812 9.855469 -8.984375 C 10.378906 -8.449219 10.707031 -7.71875 10.707031 -6.933594 C 10.707031 -6.136719 10.378906 -5.398438 9.855469 -4.851562 C 9.332031 -4.308594 8.613281 -3.945312 7.828125 -3.945312 C 7.03125 -3.945312 6.3125 -4.296875 5.789062 -4.839844 C 5.265625 -5.386719 4.949219 -6.117188 4.949219 -6.890625 Z M 4.949219 -6.890625 "/></g></g></g><g fill="#ffffff" fill-opacity="1"><g transform="translate(92.135808, 72.387155)"><g><path d="M 1.351562 -13.191406 C 1.351562 -12.964844 1.394531 -12.714844 1.449219 -12.460938 L 1.472656 -12.34375 C 1.484375 -12.246094 1.503906 -12.15625 1.515625 -12.070312 L 1.546875 -11.785156 L 1.546875 -1.917969 C 1.546875 -1.40625 1.746094 -0.871094 2.105469 -0.46875 C 2.453125 -0.0664062 2.988281 0.21875 3.675781 0.21875 L 8.363281 0.21875 C 8.898438 0.21875 9.421875 0.140625 9.933594 -0.0117188 C 10.9375 -0.316406 11.808594 -0.90625 12.429688 -1.765625 C 13.050781 -2.628906 13.3125 -3.628906 13.3125 -4.644531 C 13.3125 -5.125 13.238281 -5.539062 13.09375 -5.886719 C 12.800781 -6.585938 12.441406 -7.078125 11.929688 -7.457031 C 12.070312 -7.621094 12.210938 -7.808594 12.332031 -8.023438 C 12.539062 -8.40625 12.746094 -8.917969 12.746094 -9.582031 C 12.746094 -10.183594 12.660156 -10.695312 12.496094 -11.164062 C 12.15625 -12.125 11.558594 -12.84375 10.785156 -13.335938 C 10 -13.824219 9.0625 -14.074219 8.089844 -14.074219 L 2.59375 -14.074219 C 2.082031 -14.074219 1.777344 -13.988281 1.601562 -13.835938 C 1.417969 -13.683594 1.351562 -13.453125 1.351562 -13.191406 Z M 7.9375 -10.402344 C 8.296875 -10.402344 8.699219 -10.085938 8.699219 -9.605469 C 8.699219 -9.386719 8.613281 -9.167969 8.484375 -9.027344 C 8.339844 -8.886719 8.144531 -8.789062 7.960938 -8.789062 L 5.734375 -8.789062 L 5.734375 -10.402344 Z M 8.113281 -5.582031 C 8.328125 -5.582031 8.582031 -5.527344 8.765625 -5.375 C 8.953125 -5.222656 9.09375 -4.984375 9.09375 -4.621094 C 9.09375 -4.273438 8.953125 -4.035156 8.753906 -3.890625 C 8.558594 -3.75 8.296875 -3.683594 8.113281 -3.683594 L 5.734375 -3.683594 L 5.734375 -5.582031 Z M 8.113281 -5.582031 "/></g></g></g><g fill="#ffffff" fill-opacity="1"><g transform="translate(106.700312, 72.387155)"><g><path d="M -1.285156 1.546875 C -1.285156 2.160156 -1.058594 2.683594 -0.664062 3.0625 C -0.285156 3.457031 0.25 3.683594 0.851562 3.683594 C 2.300781 3.683594 3.542969 3.171875 4.425781 2.214844 C 5.300781 1.265625 5.824219 -0.109375 5.824219 -1.808594 L 5.824219 -11.9375 C 5.824219 -12.855469 5.441406 -13.390625 4.851562 -13.695312 C 4.261719 -14 3.488281 -14.074219 2.714844 -14.074219 C 2.179688 -14.074219 1.84375 -13.988281 1.644531 -13.835938 C 1.449219 -13.683594 1.375 -13.453125 1.375 -13.191406 C 1.375 -12.976562 1.40625 -12.769531 1.460938 -12.582031 C 1.515625 -12.386719 1.546875 -12.179688 1.546875 -11.960938 L 1.546875 -1.808594 C 1.546875 -1.070312 1.332031 -0.566406 0.851562 -0.566406 C 0.25 -0.566406 -0.285156 -0.339844 -0.664062 0.0429688 C -1.058594 0.4375 -1.285156 0.96875 -1.285156 1.546875 Z M -1.285156 1.546875 "/></g></g></g><g fill="#ffffff" fill-opacity="1"><g transform="translate(114.440564, 72.387155)"><g><path d="M 12.386719 -1.917969 C 12.386719 -2.53125 12.15625 -3.0625 11.777344 -3.445312 C 11.382812 -3.828125 10.847656 -4.054688 10.25 -4.054688 L 5.800781 -4.054688 L 5.800781 -4.972656 L 8.886719 -4.972656 C 9.703125 -4.972656 10.347656 -5.40625 10.683594 -6.148438 C 10.980469 -6.792969 10.847656 -7.46875 10.5 -7.992188 C 10.140625 -8.515625 9.539062 -8.875 8.886719 -8.875 L 5.800781 -8.875 L 5.800781 -10.03125 L 10.25 -10.03125 C 11.175781 -10.03125 11.796875 -10.476562 12.101562 -11.078125 C 12.398438 -11.675781 12.386719 -12.429688 12.082031 -13.03125 C 11.765625 -13.628906 11.152344 -14.074219 10.25 -14.074219 L 2.703125 -14.074219 C 2.148438 -14.074219 1.820312 -13.988281 1.625 -13.835938 C 1.429688 -13.683594 1.351562 -13.453125 1.351562 -13.191406 C 1.351562 -12.976562 1.382812 -12.746094 1.4375 -12.507812 C 1.492188 -12.253906 1.539062 -12.015625 1.546875 -11.785156 L 1.546875 -1.917969 C 1.546875 -1.308594 1.777344 -0.773438 2.160156 -0.390625 C 2.539062 -0.0117188 3.0625 0.21875 3.675781 0.21875 L 10.25 0.21875 C 10.847656 0.21875 11.382812 -0.0117188 11.777344 -0.402344 C 12.15625 -0.785156 12.386719 -1.320312 12.386719 -1.917969 Z M 12.386719 -1.917969 "/></g></g></g><g fill="#ffffff" fill-opacity="1"><g transform="translate(128.241966, 72.387155)"><g><path d="M 9.953125 -8.820312 C 10.523438 -8.382812 11.066406 -8.242188 11.558594 -8.285156 C 12.046875 -8.328125 12.484375 -8.582031 12.800781 -8.898438 C 13.238281 -9.332031 13.445312 -9.910156 13.410156 -10.378906 C 13.378906 -10.957031 13.183594 -11.4375 12.800781 -11.875 C 12.113281 -12.648438 11.425781 -13.203125 10.640625 -13.5625 C 9.84375 -13.914062 8.929688 -14.074219 7.828125 -14.074219 C 5.855469 -14.074219 4.066406 -13.28125 2.769531 -11.984375 C 1.472656 -10.675781 0.675781 -8.898438 0.675781 -6.933594 C 0.675781 -4.960938 1.472656 -3.171875 2.769531 -1.875 C 4.066406 -0.578125 5.855469 0.21875 7.828125 0.21875 C 8.953125 0.21875 9.910156 0.0429688 10.75 -0.328125 C 11.578125 -0.699219 12.308594 -1.253906 12.976562 -2.070312 C 13.410156 -2.507812 13.585938 -3.019531 13.585938 -3.578125 C 13.585938 -4.152344 13.378906 -4.65625 12.976562 -5.058594 C 12.800781 -5.234375 12.605469 -5.363281 12.386719 -5.453125 C 11.949219 -5.625 11.492188 -5.648438 11.046875 -5.539062 C 10.597656 -5.429688 10.160156 -5.167969 9.8125 -4.863281 C 9.628906 -4.699219 9.453125 -4.558594 9.269531 -4.425781 C 8.898438 -4.152344 8.484375 -3.945312 7.828125 -3.945312 C 7.042969 -3.945312 6.324219 -4.296875 5.800781 -4.832031 C 5.277344 -5.363281 4.949219 -6.105469 4.949219 -6.890625 C 4.949219 -7.675781 5.265625 -8.429688 5.789062 -8.972656 C 6.3125 -9.519531 7.03125 -9.855469 7.828125 -9.855469 C 8.121094 -9.855469 8.382812 -9.824219 8.601562 -9.746094 C 9.027344 -9.605469 9.332031 -9.386719 9.582031 -9.148438 C 9.703125 -9.027344 9.835938 -8.917969 9.953125 -8.820312 Z M 9.953125 -8.820312 "/></g></g></g><g fill="#ffffff" fill-opacity="1"><g transform="translate(143.253422, 72.387155)"><g><path d="M 12.953125 -11.9375 C 12.953125 -12.539062 12.714844 -13.0625 12.320312 -13.453125 C 11.929688 -13.835938 11.394531 -14.074219 10.816406 -14.074219 L 2.464844 -14.074219 C 1.863281 -14.074219 1.351562 -13.847656 0.96875 -13.464844 C 0.578125 -13.074219 0.347656 -12.550781 0.347656 -11.9375 C 0.347656 -11.339844 0.578125 -10.804688 0.96875 -10.421875 C 1.351562 -10.042969 1.863281 -9.8125 2.464844 -9.8125 L 4.535156 -9.8125 L 4.578125 -1.917969 C 4.578125 -1.320312 4.796875 -0.796875 5.167969 -0.414062 C 5.539062 -0.0234375 6.0625 0.21875 6.671875 0.21875 C 7.273438 0.21875 7.796875 -0.0117188 8.167969 -0.402344 C 8.539062 -0.785156 8.753906 -1.320312 8.753906 -1.917969 L 8.808594 -9.8125 L 10.816406 -9.8125 C 11.394531 -9.8125 11.929688 -10.054688 12.320312 -10.433594 C 12.714844 -10.816406 12.953125 -11.339844 12.953125 -11.9375 Z M 12.953125 -11.9375 "/></g></g></g></svg>